<?xml version="1.0" standalone="no"?>
<!DOCTYPE svg PUBLIC "-//W3C//DTD SVG 20010904//EN"
 "http://www.w3.org/TR/2001/REC-SVG-20010904/DTD/svg10.dtd">
<svg version="1.0" xmlns="http://www.w3.org/2000/svg"
 width="128.000000pt" height="128.000000pt" viewBox="0 0 128.000000 128.000000"
 preserveAspectRatio="xMidYMid meet">

<g transform="translate(0.000000,128.000000) scale(0.100000,-0.100000)"
fill="#000000" stroke="none">
<path d="M43 1256 l-28 -24 -3 -462 -3 -461 30 -30 30 -29 208 2 c200 3 208 4
208 23 0 19 -8 20 -199 23 -127 1 -204 6 -213 13 -10 9 -13 86 -13 380 l0 369
495 0 495 0 0 -320 0 -320 -54 30 c-80 45 -90 37 -81 -66 l7 -84 -119 0 c-123
0 -150 -7 -140 -34 5 -14 26 -16 136 -16 l130 0 6 -37 c17 -116 34 -136 80
-93 l23 22 46 -71 c25 -39 53 -71 61 -71 27 0 124 71 125 91 0 3 -20 37 -44
75 l-45 69 32 15 c52 24 42 48 -40 98 l-73 43 0 415 0 416 -29 29 -29 29 -486
0 -485 0 -28 -24z m995 -38 c7 -7 12 -34 12 -60 l0 -48 -495 0 -495 0 0 41 c0
22 5 49 10 60 10 18 26 19 483 19 355 0 476 -3 485 -12z m31 -868 c90 -52 93
-55 72 -68 -30 -21 -27 -39 25 -116 l46 -69 -23 -18 c-13 -10 -27 -19 -31 -19
-4 0 -27 32 -53 70 -51 79 -67 90 -95 65 -11 -10 -20 -15 -20 -12 0 9 -20 159
-26 196 -3 18 -2 32 3 30 5 -2 51 -29 102 -59z"/>
<path d="M114 1175 c-4 -9 -2 -21 4 -27 15 -15 44 -1 40 19 -4 23 -36 29 -44
8z"/>
<path d="M204 1175 c-4 -9 -2 -21 4 -27 15 -15 44 -1 40 19 -4 23 -36 29 -44
8z"/>
<path d="M296 1181 c-10 -16 5 -42 23 -39 21 4 21 42 -1 46 -9 2 -19 -1 -22
-7z"/>
<path d="M210 845 l0 -105 105 0 105 0 0 105 0 105 -105 0 -105 0 0 -105z
m160 0 l0 -55 -55 0 -55 0 0 55 0 55 55 0 55 0 0 -55z"/>
<path d="M534 935 c-12 -31 7 -35 180 -35 173 0 201 5 189 36 -8 21 -361 20
-369 -1z"/>
<path d="M533 774 c-3 -9 0 -20 8 -25 24 -15 332 -11 354 4 40 30 7 37 -176
37 -155 0 -180 -2 -186 -16z"/>
<path d="M217 633 c-4 -3 -7 -15 -7 -25 0 -17 17 -18 344 -18 229 0 347 4 351
10 4 6 1 17 -5 25 -11 13 -66 15 -345 15 -182 0 -335 -3 -338 -7z"/>
<path d="M214 465 c-13 -33 6 -35 291 -35 231 0 284 3 288 14 13 33 -14 36
-295 36 -234 0 -280 -2 -284 -15z"/>
<path d="M560 285 c-10 -11 -10 -19 -2 -27 15 -15 44 -2 40 19 -4 23 -22 27
-38 8z"/>
</g>
</svg>
